<svg xmlns="http://www.w3.org/2000/svg" version="1.1" xmlns:xlink="http://www.w3.org/1999/xlink" viewBox="0 0 200 200"><rect width="200" height="200" fill="url('#gradient')"></rect><defs><linearGradient id="gradient" gradientTransform="rotate(45 0.5 0.5)"><stop offset="0%" stop-color="#8b3eb0"></stop><stop offset="100%" stop-color="#cdcdc1"></stop></linearGradient></defs><g><g fill="#ebc89b" transform="matrix(2.1415520088057236,0,0,2.1415520088057236,21.972004932981953,115.86041888287912)" stroke="#31332d" stroke-width="0.55"><path d="M0.95-10.57L4.03-10.57L4.14-9.33Q5.26-10.76 7.16-10.76L7.16-10.76Q9.16-10.76 9.86-9.17L9.86-9.17Q10.94-10.76 12.97-10.76L12.97-10.76Q16.18-10.76 16.27-6.88L16.27-6.88L16.27 0L12.97 0L12.97-6.67Q12.97-7.48 12.70-7.85Q12.42-8.22 11.70-8.22L11.70-8.22Q10.72-8.22 10.24-7.35L10.24-7.35L10.25-7.22L10.25 0L6.95 0L6.95-6.65Q6.95-7.48 6.69-7.85Q6.43-8.22 5.68-8.22L5.68-8.22Q4.74-8.22 4.24-7.35L4.24-7.35L4.24 0L0.95 0L0.95-10.57ZM24.70 0L22.39-3.94L21.46-3.01L21.46 0L18.17 0L18.17-15.01L21.46-15.01L21.46-7.04L21.80-7.48L24.28-10.57L28.22-10.57L24.52-6.22L28.47 0L24.70 0ZM40.40-14.22L40.40-11.57L36.13-11.57L36.13 0L32.71 0L32.71-11.57L28.52-11.57L28.52-14.22L40.40-14.22ZM39.26-4.82L39.25-5.38Q39.25-6.96 39.86-8.20Q40.48-9.43 41.63-10.10Q42.78-10.76 44.34-10.76L44.34-10.76Q46.71-10.76 48.08-9.29Q49.44-7.82 49.44-5.29L49.44-5.29L49.44-5.18Q49.44-2.71 48.07-1.25Q46.70 0.20 44.36 0.20L44.36 0.20Q42.10 0.20 40.73-1.16Q39.37-2.51 39.26-4.82L39.26-4.82ZM42.55-5.77L42.54-5.18Q42.54-3.71 43.00-3.03Q43.46-2.34 44.36-2.34L44.36-2.34Q46.11-2.34 46.15-5.05L46.15-5.05L46.15-5.38Q46.15-8.22 44.34-8.22L44.34-8.22Q42.69-8.22 42.55-5.77L42.55-5.77ZM50.48-5.36L50.48-5.36Q50.48-7.87 51.56-9.32Q52.65-10.76 54.59-10.76L54.59-10.76Q56.01-10.76 56.97-9.65L56.97-9.65L56.97-15L60.27-15L60.27 0L57.31 0L57.15-1.13Q56.13 0.20 54.57 0.20L54.57 0.20Q52.69 0.20 51.58-1.25Q50.48-2.70 50.48-5.36ZM53.78-5.76L53.77-5.16Q53.77-2.34 55.41-2.34L55.41-2.34Q56.50-2.34 56.97-3.26L56.97-3.26L56.97-7.29Q56.52-8.22 55.43-8.22L55.43-8.22Q53.91-8.22 53.78-5.76L53.78-5.76ZM61.74-4.82L61.73-5.38Q61.73-6.96 62.34-8.20Q62.96-9.43 64.11-10.10Q65.26-10.76 66.82-10.76L66.82-10.76Q69.19-10.76 70.56-9.29Q71.92-7.82 71.92-5.29L71.92-5.29L71.92-5.18Q71.92-2.71 70.55-1.25Q69.18 0.20 66.84 0.20L66.84 0.20Q64.58 0.20 63.21-1.16Q61.85-2.51 61.74-4.82L61.74-4.82ZM65.03-5.77L65.02-5.18Q65.02-3.71 65.48-3.03Q65.94-2.34 66.84-2.34L66.84-2.34Q68.59-2.34 68.63-5.05L68.63-5.05L68.63-5.38Q68.63-8.22 66.82-8.22L66.82-8.22Q65.17-8.22 65.03-5.77L65.03-5.77Z"></path></g></g></svg>